<?xml version="1.0" encoding="utf-8"?>
<!-- Generator: Adobe Illustrator 16.0.0, SVG Export Plug-In . SVG Version: 6.00 Build 0)  -->
<!DOCTYPE svg PUBLIC "-//W3C//DTD SVG 1.1//EN" "http://www.w3.org/Graphics/SVG/1.1/DTD/svg11.dtd">
<svg version="1.1" id="Layer_1" xmlns="http://www.w3.org/2000/svg" xmlns:xlink="http://www.w3.org/1999/xlink" x="0px" y="0px"
	 width="60px" height="48px" viewBox="0 0 60 48" enable-background="new 0 0 60 48" xml:space="preserve">
<g>
	<path d="M49.599,47.105c-0.523,0.522-1.369,0.522-1.894,0L29.738,29.139L11.772,47.105c-0.522,0.521-1.369,0.522-1.892,0
		l-3.404-3.403c-0.522-0.524-0.521-1.369,0-1.894l17.967-17.966L6.477,5.876c-0.522-0.522-0.522-1.369,0-1.892l3.404-3.404
		c0.522-0.523,1.369-0.523,1.891-0.001l17.966,17.967L47.705,0.581c0.524-0.523,1.37-0.523,1.894,0l3.403,3.404
		c0.522,0.523,0.522,1.369,0,1.892L35.034,23.843L53.002,41.81c0.521,0.523,0.521,1.37,0,1.893L49.599,47.105z"/>
</g>
</svg>
