<?xml version="1.0" encoding="utf-8"?>
<!-- Generator: Adobe Illustrator 16.0.0, SVG Export Plug-In . SVG Version: 6.00 Build 0)  -->
<!DOCTYPE svg PUBLIC "-//W3C//DTD SVG 1.1//EN" "http://www.w3.org/Graphics/SVG/1.1/DTD/svg11.dtd">
<svg version="1.1" id="Layer_1" xmlns="http://www.w3.org/2000/svg" xmlns:xlink="http://www.w3.org/1999/xlink" x="0px" y="0px"
	 width="57px" height="48px" viewBox="0 0 57 48" enable-background="new 0 0 57 48" xml:space="preserve">
<g transform="translate(1295.7431,-431.9792)">
	<path d="M-1256.523,478.462c-1.072-0.058-1.985-0.46-2.73-1.206c-0.388-0.389-0.523-0.574-0.74-1.014
		c-0.354-0.725-0.459-1.148-0.459-1.889s0.104-1.163,0.459-1.888c0.217-0.44,0.353-0.626,0.74-1.016
		c0.391-0.39,0.576-0.523,1.015-0.739c0.725-0.357,1.149-0.46,1.89-0.46c0.738,0,1.163,0.103,1.888,0.46
		c0.44,0.216,0.626,0.35,1.015,0.739c0.391,0.39,0.523,0.575,0.74,1.016c0.356,0.725,0.458,1.147,0.458,1.888
		s-0.102,1.164-0.458,1.889c-0.215,0.438-0.35,0.625-0.731,1.006c-0.635,0.633-1.299,0.983-2.193,1.161
		C-1255.873,478.457-1256.229,478.477-1256.523,478.462z M-1277.771,478.343c-0.181-0.045-0.537-0.186-0.79-0.311
		c-0.869-0.428-1.441-0.999-1.87-1.869c-0.316-0.64-0.42-1.088-0.42-1.811s0.104-1.17,0.42-1.811
		c0.429-0.869,1.001-1.439,1.87-1.869c0.639-0.316,1.088-0.42,1.811-0.42s1.17,0.104,1.81,0.42c0.869,0.43,1.44,1,1.869,1.869
		c0.316,0.641,0.42,1.088,0.42,1.811c0,0.378-0.036,0.743-0.095,0.978c-0.128,0.492-0.487,1.213-0.812,1.623
		c-0.594,0.748-1.602,1.322-2.591,1.477C-1276.572,478.496-1277.329,478.457-1277.771,478.343z M-1248.78,467.744h-18.41h-18.41
		v-14.396v-14.396h-3.679h-3.679v-2.442v-2.442h6.122h6.12v14.396v14.396h14.066h14.064l2.33-8.692l2.328-8.692l-9.498-0.015
		l-9.499-0.015v-2.442v-2.442h12.679h12.681l-0.039,0.271c-0.024,0.195-6.284,23.669-7.084,26.581L-1248.78,467.744z"/>
</g>
</svg>
